{"asset":{"version":"2.0","generator":"Blockbench 4.12.5 glTF exporter"},"scenes":[{"nodes":[1],"name":"blockbench_export"}],"scene":0,"nodes":[{"rotation":[0,0.9659258262890683,0,0.25881904510252074],"name":"sphere","mesh":0},{"children":[0]}],"bufferViews":[{"buffer":0,"byteOffset":0,"byteLength":360,"target":34962,"byteStride":12},{"buffer":0,"byteOffset":360,"byteLength":360,"target":34962,"byteStride":12},{"buffer":0,"byteOffset":720,"byteLength":240,"target":34962,"byteStride":8},{"buffer":0,"byteOffset":960,"byteLength":60,"target":34963}],"buffers":[{"byteLength":1020,"uri":"data:application/octet-stream;base64,"}],"accessors":[{"bufferView":0,"componentType":5126,"count":30,"max":[0.5625,0.4375,0.4999998211860657],"min":[-0.5,0,-0.4999998211860657],"type":"VEC3"},{"bufferView":1,"componentType":5126,"count":30,"max":[0.7790197134017944,0.9161526560783386,0.7777614593505859],"min":[-0.8944271206855774,0.4368494749069214,-0.6123723983764648],"type":"VEC3"},{"bufferView":2,"componentType":5126,"count":30,"max":[0.8660249710083008,0.9046312570571899],"min":[0,0],"type":"VEC2"},{"bufferView":3,"componentType":5123,"count":30,"max":[29],"min":[0],"type":"SCALAR"}],"materials":[{"pbrMetallicRoughness":{"metallicFactor":0,"roughnessFactor":1,"baseColorTexture":{"index":0}},"alphaMode":"MASK","alphaCutoff":0.05,"doubleSided":true}],"textures":[{"sampler":0,"source":0,"name":"stone.png"}],"samplers":[{"magFilter":9728,"minFilter":9728,"wrapS":33071,"wrapT":33071}],"images":[{"mimeType":"image/png","uri":"data:image/png;base64,"}],"meshes":[{"primitives":[{"mode":4,"attributes":{"POSITION":0,"NORMAL":1,"TEXCOORD_0":2},"indices":3,"material":0}]}]}